<!-- Generated by IcoMoon.io -->
<svg version="1.1" xmlns="http://www.w3.org/2000/svg" width="43" height="32" viewBox="0 0 43 32">
<title>envelope</title>
<path fill="#757575" d="M38.674 0h-34.673c-2.206 0-4.001 1.795-4.001 4.001v24.004c0 2.206 1.795 4.001 4.001 4.001h34.673c2.206 0 4.001-1.795 4.001-4.001v-24.004c0-2.206-1.795-4.001-4.001-4.001zM38.674 2.667c0.181 0 0.355 0.037 0.512 0.104l-17.849 15.47-17.849-15.47c0.151-0.065 0.327-0.104 0.512-0.104h34.673zM38.674 29.339h-34.673c-0.737 0-1.334-0.597-1.334-1.334v0-22.418l17.795 15.424c0.233 0.203 0.539 0.327 0.875 0.327s0.642-0.124 0.876-0.328l-0.002 0.001 17.795-15.424v22.418c0 0.737-0.597 1.334-1.334 1.334v0z"></path>
</svg>
